<svg width="80" height="80" viewBox="0 0 80 80" fill="none" xmlns="http://www.w3.org/2000/svg">
<path fill-rule="evenodd" clip-rule="evenodd" d="M27.9959 16.5141C31.6566 14.5577 35.7738 13.505 40 13.5C40.1026 13.5 40.2051 13.5006 40.3076 13.5019L40.8198 13.0129C40.5468 13.0043 40.2735 13 40 13C35.619 13 31.3219 14.1068 27.5016 16.2011L27.9959 16.5141Z" fill="#B0CCD8"/>
<path fill-rule="evenodd" clip-rule="evenodd" d="M58.0561 11.9772C52.7115 8.40609 46.428 6.5 40.0001 6.5C31.3838 6.51059 23.1234 9.93808 17.0308 16.0307C16.7262 16.3353 16.4282 16.6454 16.137 16.9606L15.6914 16.6821C17.4625 14.753 19.466 13.0317 21.6663 11.5615C27.0931 7.93542 33.4733 6 40.0001 6C44.3337 6 48.6249 6.85357 52.6286 8.51198C56.6324 10.1704 60.2703 12.6011 63.3346 15.6655C66.3989 18.7298 68.8297 22.3677 70.4881 26.3714C71.1392 27.9435 71.6663 29.5598 72.0664 31.2056L71.5568 31.2268C71.1665 29.6423 70.6559 28.083 70.0262 26.5628C67.5663 20.6242 63.4007 15.5484 58.0561 11.9772Z" fill="#B0CCD8"/>
<path d="M80 53L40 73L0 53L40 33L80 53Z" fill="#00A88E"/>
<path fill-rule="evenodd" clip-rule="evenodd" d="M43.299 71.3505L42.1811 71.9094L22.1663 61.8971L22.6136 61.0028L43.299 71.3505ZM46.754 69.623L45.6358 70.1821L25.6165 60.1773L26.0635 59.2828L46.754 69.623ZM50.199 67.9005L49.0812 68.4594L29.0663 58.4471L29.5137 57.5528L50.199 67.9005ZM53.6541 66.173L52.5362 66.7319L32.5164 56.7172L32.9637 55.8228L53.6541 66.173ZM57.099 64.4505L55.9811 65.0094L35.9663 54.9972L36.4137 54.1028L57.099 64.4505ZM60.554 62.723L59.4363 63.2818L39.4262 53.2671L39.8737 52.3728L60.554 62.723ZM64.0141 60.993L62.8962 61.5519L42.8763 51.5372L43.3237 50.6428L64.0141 60.993ZM67.4591 59.2705L66.3412 59.8294L46.3263 49.8171L46.7737 48.9228L67.4591 59.2705ZM70.9141 57.543L69.7962 58.1019L49.7764 48.0872L50.2238 47.1928L70.9141 57.543ZM74.369 55.8155L73.2508 56.3746L53.2265 46.3673L53.6735 45.4728L74.369 55.8155ZM77.814 54.093L76.6962 54.6519L56.6763 44.6371L57.1237 43.7428L77.814 54.093Z" fill="#7CCCBF"/>
<path d="M4 26L23 36L4 46V26Z" fill="#F3B937"/>
<path d="M44.25 21.5955V10.4045L55.441 16L44.25 21.5955Z" stroke="#B0CCD8" stroke-width="0.5"/>
<path d="M20.38 71.13L49.5 55.5" stroke="#008E77" stroke-miterlimit="10" stroke-dasharray="15 3 3 3"/>
<path d="M35 53.96L75.53 34" stroke="#008E77" stroke-miterlimit="10" stroke-dasharray="15 3 3 3"/>
<path d="M19.5 67C20.8807 67 22 65.8807 22 64.5C22 63.1193 20.8807 62 19.5 62C18.1193 62 17 63.1193 17 64.5C17 65.8807 18.1193 67 19.5 67Z" fill="#F3B937"/>
<path d="M8.5 62L56.5 36" stroke="#7CCCBF" stroke-miterlimit="10" stroke-dasharray="15 3 3 3"/>
<path d="M34 21L32 19H16V58H65V21H34Z" fill="#446776"/>
<path d="M63 24H22V27H63V24Z" fill="white"/>
<path d="M63 21H60V24H63V21Z" fill="#F04E45"/>
<path d="M60 21H57V24H60V21Z" fill="#00A88E"/>
<path d="M57 21H54V24H57V21Z" fill="#E1EDF3"/>
<path d="M62 25H60V26H62V25Z" fill="#E1EDF3"/>
<path d="M38 25H24V26H38V25Z" fill="#E1EDF3"/>
<path d="M63 28H18V56H63V28Z" fill="white"/>
<path d="M23 24H18V27H23V24Z" fill="#40ABE1"/>
<path d="M59.473 31.5H21.527V40.5H59.473V31.5Z" fill="white"/>
<path d="M58.9459 32V40H22.0541V32H58.9459ZM60 31H21V41H60V31Z" fill="#84A9B9"/>
<path d="M59.473 43.5H21.527V52.5H59.473V43.5Z" fill="white"/>
<path d="M58.9459 44V52H22.0541V44H58.9459ZM60 43H21V53H60V43Z" fill="#84A9B9"/>
<path d="M29 48.2807C29 48.1491 28.937 47.9298 28.8529 47.6667C28.7899 47.4912 28.7479 47.4035 28.7059 47.3816C28.6849 47.3596 28.6429 47.3158 28.5798 47.3158C28.5168 47.3158 28.4118 47.3377 28.2017 47.4254L27.4034 47.7325C27.3193 47.7544 27.2773 47.7763 27.2353 47.7763C27.1513 47.7763 27.0252 47.7325 27.0252 47.4474L27.0462 46.5482C27.0462 46.4386 27.0462 46.3289 27.0252 46.2193C27.0042 46.0877 26.9622 46.0658 26.9412 46.0439C26.9202 46.0219 26.7941 46 26.5 46C26.1218 46 26.0378 46.0658 26.0168 46.0658C25.9748 46.0877 25.9328 46.1754 25.9328 46.4825V46.5482L25.9748 47.4474V47.4912C25.9538 47.7105 25.8487 47.7544 25.7647 47.7544C25.7437 47.7544 25.7017 47.7544 25.5966 47.7105L24.7773 47.4254C24.6303 47.3596 24.5042 47.3377 24.4202 47.3377C24.3782 47.3377 24.2731 47.3377 24.1891 47.6009C24.063 47.886 24 48.1272 24 48.2807C24 48.3246 24.021 48.4342 24.4412 48.5439L25.2605 48.7851C25.4286 48.8289 25.5126 48.9167 25.5126 49.0263C25.5126 49.0921 25.4916 49.1579 25.4076 49.2456L24.8613 49.9474C24.6723 50.2105 24.6513 50.3202 24.6513 50.364C24.6513 50.386 24.6723 50.5175 25.0084 50.7588C25.3235 50.9781 25.4076 51 25.4496 51C25.4706 51 25.5966 50.9781 25.7857 50.6491L26.2479 49.9035C26.2899 49.8158 26.3739 49.7281 26.479 49.7281C26.584 49.7281 26.6681 49.8377 26.7101 49.9035L27.1723 50.6491C27.3824 50.9561 27.4874 51 27.5084 51C27.5294 51 27.6345 50.9781 27.9496 50.7588C28.2857 50.4956 28.3067 50.386 28.3067 50.364C28.3067 50.3202 28.2857 50.2105 28.0966 49.9474L27.5714 49.2456C27.4874 49.136 27.4664 49.0921 27.4664 49.0263C27.4664 48.9386 27.5084 48.8289 27.7185 48.7632L28.5378 48.5219C28.8529 48.4781 29 48.3684 29 48.2807Z" fill="#00A88E"/>
<path d="M36 48.2807C36 48.1491 35.937 47.9298 35.8529 47.6667C35.7899 47.4912 35.7479 47.4035 35.7059 47.3816C35.6849 47.3596 35.6429 47.3158 35.5798 47.3158C35.5168 47.3158 35.4118 47.3377 35.2017 47.4254L34.4034 47.7325C34.3193 47.7544 34.2773 47.7763 34.2353 47.7763C34.1513 47.7763 34.0252 47.7325 34.0252 47.4474L34.0462 46.5482C34.0462 46.4386 34.0462 46.3289 34.0252 46.2193C34.0042 46.0877 33.9622 46.0658 33.9412 46.0439C33.9202 46.0219 33.7941 46 33.5 46C33.1218 46 33.0378 46.0658 33.0168 46.0658C32.9748 46.0877 32.9328 46.1754 32.9328 46.4825V46.5482L32.9748 47.4474V47.4912C32.9538 47.7105 32.8487 47.7544 32.7647 47.7544C32.7437 47.7544 32.7017 47.7544 32.5966 47.7105L31.7773 47.4254C31.6303 47.3596 31.5042 47.3377 31.4202 47.3377C31.3782 47.3377 31.2731 47.3377 31.1891 47.6009C31.063 47.886 31 48.1272 31 48.2807C31 48.3246 31.021 48.4342 31.4412 48.5439L32.2605 48.7851C32.4286 48.8289 32.5126 48.9167 32.5126 49.0263C32.5126 49.0921 32.4916 49.1579 32.4076 49.2456L31.8613 49.9474C31.6723 50.2105 31.6513 50.3202 31.6513 50.364C31.6513 50.386 31.6723 50.5175 32.0084 50.7588C32.3235 50.9781 32.4076 51 32.4496 51C32.4706 51 32.5966 50.9781 32.7857 50.6491L33.2479 49.9035C33.2899 49.8158 33.3739 49.7281 33.479 49.7281C33.584 49.7281 33.6681 49.8377 33.7101 49.9035L34.1723 50.6491C34.3824 50.9561 34.4874 51 34.5084 51C34.5294 51 34.6345 50.9781 34.9496 50.7588C35.2857 50.4956 35.3067 50.386 35.3067 50.364C35.3067 50.3202 35.2857 50.2105 35.0966 49.9474L34.5714 49.2456C34.4874 49.136 34.4664 49.0921 34.4664 49.0263C34.4664 48.9386 34.5084 48.8289 34.7185 48.7632L35.5378 48.5219C35.8529 48.4781 36 48.3684 36 48.2807Z" fill="#00A88E"/>
<path d="M43 48.2807C43 48.1491 42.937 47.9298 42.8529 47.6667C42.7899 47.4912 42.7479 47.4035 42.7059 47.3816C42.6849 47.3596 42.6429 47.3158 42.5798 47.3158C42.5168 47.3158 42.4118 47.3377 42.2017 47.4254L41.4034 47.7325C41.3193 47.7544 41.2773 47.7763 41.2353 47.7763C41.1513 47.7763 41.0252 47.7325 41.0252 47.4474L41.0462 46.5482C41.0462 46.4386 41.0462 46.3289 41.0252 46.2193C41.0042 46.0877 40.9622 46.0658 40.9412 46.0439C40.9202 46.0219 40.7941 46 40.5 46C40.1218 46 40.0378 46.0658 40.0168 46.0658C39.9748 46.0877 39.9328 46.1754 39.9328 46.4825V46.5482L39.9748 47.4474V47.4912C39.9538 47.7105 39.8487 47.7544 39.7647 47.7544C39.7437 47.7544 39.7017 47.7544 39.5966 47.7105L38.7773 47.4254C38.6303 47.3596 38.5042 47.3377 38.4202 47.3377C38.3782 47.3377 38.2731 47.3377 38.1891 47.6009C38.063 47.886 38 48.1272 38 48.2807C38 48.3246 38.021 48.4342 38.4412 48.5439L39.2605 48.7851C39.4286 48.8289 39.5126 48.9167 39.5126 49.0263C39.5126 49.0921 39.4916 49.1579 39.4076 49.2456L38.8613 49.9474C38.6723 50.2105 38.6513 50.3202 38.6513 50.364C38.6513 50.386 38.6723 50.5175 39.0084 50.7588C39.3235 50.9781 39.4076 51 39.4496 51C39.4706 51 39.5966 50.9781 39.7857 50.6491L40.2479 49.9035C40.2899 49.8158 40.3739 49.7281 40.479 49.7281C40.584 49.7281 40.6681 49.8377 40.7101 49.9035L41.1723 50.6491C41.3824 50.9561 41.4874 51 41.5084 51C41.5294 51 41.6345 50.9781 41.9496 50.7588C42.2857 50.4956 42.3067 50.386 42.3067 50.364C42.3067 50.3202 42.2857 50.2105 42.0966 49.9474L41.5714 49.2456C41.4874 49.136 41.4664 49.0921 41.4664 49.0263C41.4664 48.9386 41.5084 48.8289 41.7185 48.7632L42.5378 48.5219C42.8529 48.4781 43 48.3684 43 48.2807Z" fill="#00A88E"/>
<path d="M50 48.2807C50 48.1491 49.937 47.9298 49.8529 47.6667C49.7899 47.4912 49.7479 47.4035 49.7059 47.3816C49.6849 47.3596 49.6429 47.3158 49.5798 47.3158C49.5168 47.3158 49.4118 47.3377 49.2017 47.4254L48.4034 47.7325C48.3193 47.7544 48.2773 47.7763 48.2353 47.7763C48.1513 47.7763 48.0252 47.7325 48.0252 47.4474L48.0462 46.5482C48.0462 46.4386 48.0462 46.3289 48.0252 46.2193C48.0042 46.0877 47.9622 46.0658 47.9412 46.0439C47.9202 46.0219 47.7941 46 47.5 46C47.1218 46 47.0378 46.0658 47.0168 46.0658C46.9748 46.0877 46.9328 46.1754 46.9328 46.4825V46.5482L46.9748 47.4474V47.4912C46.9538 47.7105 46.8487 47.7544 46.7647 47.7544C46.7437 47.7544 46.7017 47.7544 46.5966 47.7105L45.7773 47.4254C45.6303 47.3596 45.5042 47.3377 45.4202 47.3377C45.3782 47.3377 45.2731 47.3377 45.1891 47.6009C45.063 47.886 45 48.1272 45 48.2807C45 48.3246 45.021 48.4342 45.4412 48.5439L46.2605 48.7851C46.4286 48.8289 46.5126 48.9167 46.5126 49.0263C46.5126 49.0921 46.4916 49.1579 46.4076 49.2456L45.8613 49.9474C45.6723 50.2105 45.6513 50.3202 45.6513 50.364C45.6513 50.386 45.6723 50.5175 46.0084 50.7588C46.3235 50.9781 46.4076 51 46.4496 51C46.4706 51 46.5966 50.9781 46.7857 50.6491L47.2479 49.9035C47.2899 49.8158 47.3739 49.7281 47.479 49.7281C47.584 49.7281 47.6681 49.8377 47.7101 49.9035L48.1723 50.6491C48.3824 50.9561 48.4874 51 48.5084 51C48.5294 51 48.6345 50.9781 48.9496 50.7588C49.2857 50.4956 49.3067 50.386 49.3067 50.364C49.3067 50.3202 49.2857 50.2105 49.0966 49.9474L48.5714 49.2456C48.4874 49.136 48.4664 49.0921 48.4664 49.0263C48.4664 48.9386 48.5084 48.8289 48.7185 48.7632L49.5378 48.5219C49.8529 48.4781 50 48.3684 50 48.2807Z" fill="#00A88E"/>
<path d="M57 48.2807C57 48.1491 56.937 47.9298 56.8529 47.6667C56.7899 47.4912 56.7479 47.4035 56.7059 47.3816C56.6849 47.3596 56.6429 47.3158 56.5798 47.3158C56.5168 47.3158 56.4118 47.3377 56.2017 47.4254L55.4034 47.7325C55.3193 47.7544 55.2773 47.7763 55.2353 47.7763C55.1513 47.7763 55.0252 47.7325 55.0252 47.4474L55.0462 46.5482C55.0462 46.4386 55.0462 46.3289 55.0252 46.2193C55.0042 46.0877 54.9622 46.0658 54.9412 46.0439C54.9202 46.0219 54.7941 46 54.5 46C54.1218 46 54.0378 46.0658 54.0168 46.0658C53.9748 46.0877 53.9328 46.1754 53.9328 46.4825V46.5482L53.9748 47.4474V47.4912C53.9538 47.7105 53.8487 47.7544 53.7647 47.7544C53.7437 47.7544 53.7017 47.7544 53.5966 47.7105L52.7773 47.4254C52.6303 47.3596 52.5042 47.3377 52.4202 47.3377C52.3782 47.3377 52.2731 47.3377 52.1891 47.6009C52.063 47.886 52 48.1272 52 48.2807C52 48.3246 52.021 48.4342 52.4412 48.5439L53.2605 48.7851C53.4286 48.8289 53.5126 48.9167 53.5126 49.0263C53.5126 49.0921 53.4916 49.1579 53.4076 49.2456L52.8613 49.9474C52.6723 50.2105 52.6513 50.3202 52.6513 50.364C52.6513 50.386 52.6723 50.5175 53.0084 50.7588C53.3235 50.9781 53.4076 51 53.4496 51C53.4706 51 53.5966 50.9781 53.7857 50.6491L54.2479 49.9035C54.2899 49.8158 54.3739 49.7281 54.479 49.7281C54.584 49.7281 54.6681 49.8377 54.7101 49.9035L55.1723 50.6491C55.3824 50.9561 55.4874 51 55.5084 51C55.5294 51 55.6345 50.9781 55.9496 50.7588C56.2857 50.4956 56.3067 50.386 56.3067 50.364C56.3067 50.3202 56.2857 50.2105 56.0966 49.9474L55.5714 49.2456C55.4874 49.136 55.4664 49.0921 55.4664 49.0263C55.4664 48.9386 55.5084 48.8289 55.7185 48.7632L56.5378 48.5219C56.8529 48.4781 57 48.3684 57 48.2807Z" fill="#00A88E"/>
<path d="M29 36.2807C29 36.1491 28.937 35.9298 28.8529 35.6667C28.7899 35.4912 28.7479 35.4035 28.7059 35.3816C28.6849 35.3596 28.6429 35.3158 28.5798 35.3158C28.5168 35.3158 28.4118 35.3377 28.2017 35.4254L27.4034 35.7325C27.3193 35.7544 27.2773 35.7763 27.2353 35.7763C27.1513 35.7763 27.0252 35.7325 27.0252 35.4474L27.0462 34.5482C27.0462 34.4386 27.0462 34.3289 27.0252 34.2193C27.0042 34.0877 26.9622 34.0658 26.9412 34.0439C26.9202 34.0219 26.7941 34 26.5 34C26.1218 34 26.0378 34.0658 26.0168 34.0658C25.9748 34.0877 25.9328 34.1754 25.9328 34.4825V34.5482L25.9748 35.4474V35.4912C25.9538 35.7105 25.8487 35.7544 25.7647 35.7544C25.7437 35.7544 25.7017 35.7544 25.5966 35.7105L24.7773 35.4254C24.6303 35.3596 24.5042 35.3377 24.4202 35.3377C24.3782 35.3377 24.2731 35.3377 24.1891 35.6009C24.063 35.886 24 36.1272 24 36.2807C24 36.3246 24.021 36.4342 24.4412 36.5439L25.2605 36.7851C25.4286 36.8289 25.5126 36.9167 25.5126 37.0263C25.5126 37.0921 25.4916 37.1579 25.4076 37.2456L24.8613 37.9474C24.6723 38.2105 24.6513 38.3202 24.6513 38.364C24.6513 38.386 24.6723 38.5175 25.0084 38.7588C25.3235 38.9781 25.4076 39 25.4496 39C25.4706 39 25.5966 38.9781 25.7857 38.6491L26.2479 37.9035C26.2899 37.8158 26.3739 37.7281 26.479 37.7281C26.584 37.7281 26.6681 37.8377 26.7101 37.9035L27.1723 38.6491C27.3824 38.9561 27.4874 39 27.5084 39C27.5294 39 27.6345 38.9781 27.9496 38.7588C28.2857 38.4956 28.3067 38.386 28.3067 38.364C28.3067 38.3202 28.2857 38.2105 28.0966 37.9474L27.5714 37.2456C27.4874 37.136 27.4664 37.0921 27.4664 37.0263C27.4664 36.9386 27.5084 36.8289 27.7185 36.7632L28.5378 36.5219C28.8529 36.4781 29 36.3684 29 36.2807Z" fill="#00A88E"/>
<path d="M36 36.2807C36 36.1491 35.937 35.9298 35.8529 35.6667C35.7899 35.4912 35.7479 35.4035 35.7059 35.3816C35.6849 35.3596 35.6429 35.3158 35.5798 35.3158C35.5168 35.3158 35.4118 35.3377 35.2017 35.4254L34.4034 35.7325C34.3193 35.7544 34.2773 35.7763 34.2353 35.7763C34.1513 35.7763 34.0252 35.7325 34.0252 35.4474L34.0462 34.5482C34.0462 34.4386 34.0462 34.3289 34.0252 34.2193C34.0042 34.0877 33.9622 34.0658 33.9412 34.0439C33.9202 34.0219 33.7941 34 33.5 34C33.1218 34 33.0378 34.0658 33.0168 34.0658C32.9748 34.0877 32.9328 34.1754 32.9328 34.4825V34.5482L32.9748 35.4474V35.4912C32.9538 35.7105 32.8487 35.7544 32.7647 35.7544C32.7437 35.7544 32.7017 35.7544 32.5966 35.7105L31.7773 35.4254C31.6303 35.3596 31.5042 35.3377 31.4202 35.3377C31.3782 35.3377 31.2731 35.3377 31.1891 35.6009C31.063 35.886 31 36.1272 31 36.2807C31 36.3246 31.021 36.4342 31.4412 36.5439L32.2605 36.7851C32.4286 36.8289 32.5126 36.9167 32.5126 37.0263C32.5126 37.0921 32.4916 37.1579 32.4076 37.2456L31.8613 37.9474C31.6723 38.2105 31.6513 38.3202 31.6513 38.364C31.6513 38.386 31.6723 38.5175 32.0084 38.7588C32.3235 38.9781 32.4076 39 32.4496 39C32.4706 39 32.5966 38.9781 32.7857 38.6491L33.2479 37.9035C33.2899 37.8158 33.3739 37.7281 33.479 37.7281C33.584 37.7281 33.6681 37.8377 33.7101 37.9035L34.1723 38.6491C34.3824 38.9561 34.4874 39 34.5084 39C34.5294 39 34.6345 38.9781 34.9496 38.7588C35.2857 38.4956 35.3067 38.386 35.3067 38.364C35.3067 38.3202 35.2857 38.2105 35.0966 37.9474L34.5714 37.2456C34.4874 37.136 34.4664 37.0921 34.4664 37.0263C34.4664 36.9386 34.5084 36.8289 34.7185 36.7632L35.5378 36.5219C35.8529 36.4781 36 36.3684 36 36.2807Z" fill="#00A88E"/>
<path d="M43 36.2807C43 36.1491 42.937 35.9298 42.8529 35.6667C42.7899 35.4912 42.7479 35.4035 42.7059 35.3816C42.6849 35.3596 42.6429 35.3158 42.5798 35.3158C42.5168 35.3158 42.4118 35.3377 42.2017 35.4254L41.4034 35.7325C41.3193 35.7544 41.2773 35.7763 41.2353 35.7763C41.1513 35.7763 41.0252 35.7325 41.0252 35.4474L41.0462 34.5482C41.0462 34.4386 41.0462 34.3289 41.0252 34.2193C41.0042 34.0877 40.9622 34.0658 40.9412 34.0439C40.9202 34.0219 40.7941 34 40.5 34C40.1218 34 40.0378 34.0658 40.0168 34.0658C39.9748 34.0877 39.9328 34.1754 39.9328 34.4825V34.5482L39.9748 35.4474V35.4912C39.9538 35.7105 39.8487 35.7544 39.7647 35.7544C39.7437 35.7544 39.7017 35.7544 39.5966 35.7105L38.7773 35.4254C38.6303 35.3596 38.5042 35.3377 38.4202 35.3377C38.3782 35.3377 38.2731 35.3377 38.1891 35.6009C38.063 35.886 38 36.1272 38 36.2807C38 36.3246 38.021 36.4342 38.4412 36.5439L39.2605 36.7851C39.4286 36.8289 39.5126 36.9167 39.5126 37.0263C39.5126 37.0921 39.4916 37.1579 39.4076 37.2456L38.8613 37.9474C38.6723 38.2105 38.6513 38.3202 38.6513 38.364C38.6513 38.386 38.6723 38.5175 39.0084 38.7588C39.3235 38.9781 39.4076 39 39.4496 39C39.4706 39 39.5966 38.9781 39.7857 38.6491L40.2479 37.9035C40.2899 37.8158 40.3739 37.7281 40.479 37.7281C40.584 37.7281 40.6681 37.8377 40.7101 37.9035L41.1723 38.6491C41.3824 38.9561 41.4874 39 41.5084 39C41.5294 39 41.6345 38.9781 41.9496 38.7588C42.2857 38.4956 42.3067 38.386 42.3067 38.364C42.3067 38.3202 42.2857 38.2105 42.0966 37.9474L41.5714 37.2456C41.4874 37.136 41.4664 37.0921 41.4664 37.0263C41.4664 36.9386 41.5084 36.8289 41.7185 36.7632L42.5378 36.5219C42.8529 36.4781 43 36.3684 43 36.2807Z" fill="#00A88E"/>
<path d="M50 36.2807C50 36.1491 49.937 35.9298 49.8529 35.6667C49.7899 35.4912 49.7479 35.4035 49.7059 35.3816C49.6849 35.3596 49.6429 35.3158 49.5798 35.3158C49.5168 35.3158 49.4118 35.3377 49.2017 35.4254L48.4034 35.7325C48.3193 35.7544 48.2773 35.7763 48.2353 35.7763C48.1513 35.7763 48.0252 35.7325 48.0252 35.4474L48.0462 34.5482C48.0462 34.4386 48.0462 34.3289 48.0252 34.2193C48.0042 34.0877 47.9622 34.0658 47.9412 34.0439C47.9202 34.0219 47.7941 34 47.5 34C47.1218 34 47.0378 34.0658 47.0168 34.0658C46.9748 34.0877 46.9328 34.1754 46.9328 34.4825V34.5482L46.9748 35.4474V35.4912C46.9538 35.7105 46.8487 35.7544 46.7647 35.7544C46.7437 35.7544 46.7017 35.7544 46.5966 35.7105L45.7773 35.4254C45.6303 35.3596 45.5042 35.3377 45.4202 35.3377C45.3782 35.3377 45.2731 35.3377 45.1891 35.6009C45.063 35.886 45 36.1272 45 36.2807C45 36.3246 45.021 36.4342 45.4412 36.5439L46.2605 36.7851C46.4286 36.8289 46.5126 36.9167 46.5126 37.0263C46.5126 37.0921 46.4916 37.1579 46.4076 37.2456L45.8613 37.9474C45.6723 38.2105 45.6513 38.3202 45.6513 38.364C45.6513 38.386 45.6723 38.5175 46.0084 38.7588C46.3235 38.9781 46.4076 39 46.4496 39C46.4706 39 46.5966 38.9781 46.7857 38.6491L47.2479 37.9035C47.2899 37.8158 47.3739 37.7281 47.479 37.7281C47.584 37.7281 47.6681 37.8377 47.7101 37.9035L48.1723 38.6491C48.3824 38.9561 48.4874 39 48.5084 39C48.5294 39 48.6345 38.9781 48.9496 38.7588C49.2857 38.4956 49.3067 38.386 49.3067 38.364C49.3067 38.3202 49.2857 38.2105 49.0966 37.9474L48.5714 37.2456C48.4874 37.136 48.4664 37.0921 48.4664 37.0263C48.4664 36.9386 48.5084 36.8289 48.7185 36.7632L49.5378 36.5219C49.8529 36.4781 50 36.3684 50 36.2807Z" fill="#00A88E"/>
<path d="M57 36.2807C57 36.1491 56.937 35.9298 56.8529 35.6667C56.7899 35.4912 56.7479 35.4035 56.7059 35.3816C56.6849 35.3596 56.6429 35.3158 56.5798 35.3158C56.5168 35.3158 56.4118 35.3377 56.2017 35.4254L55.4034 35.7325C55.3193 35.7544 55.2773 35.7763 55.2353 35.7763C55.1513 35.7763 55.0252 35.7325 55.0252 35.4474L55.0462 34.5482C55.0462 34.4386 55.0462 34.3289 55.0252 34.2193C55.0042 34.0877 54.9622 34.0658 54.9412 34.0439C54.9202 34.0219 54.7941 34 54.5 34C54.1218 34 54.0378 34.0658 54.0168 34.0658C53.9748 34.0877 53.9328 34.1754 53.9328 34.4825V34.5482L53.9748 35.4474V35.4912C53.9538 35.7105 53.8487 35.7544 53.7647 35.7544C53.7437 35.7544 53.7017 35.7544 53.5966 35.7105L52.7773 35.4254C52.6303 35.3596 52.5042 35.3377 52.4202 35.3377C52.3782 35.3377 52.2731 35.3377 52.1891 35.6009C52.063 35.886 52 36.1272 52 36.2807C52 36.3246 52.021 36.4342 52.4412 36.5439L53.2605 36.7851C53.4286 36.8289 53.5126 36.9167 53.5126 37.0263C53.5126 37.0921 53.4916 37.1579 53.4076 37.2456L52.8613 37.9474C52.6723 38.2105 52.6513 38.3202 52.6513 38.364C52.6513 38.386 52.6723 38.5175 53.0084 38.7588C53.3235 38.9781 53.4076 39 53.4496 39C53.4706 39 53.5966 38.9781 53.7857 38.6491L54.2479 37.9035C54.2899 37.8158 54.3739 37.7281 54.479 37.7281C54.584 37.7281 54.6681 37.8377 54.7101 37.9035L55.1723 38.6491C55.3824 38.9561 55.4874 39 55.5084 39C55.5294 39 55.6345 38.9781 55.9496 38.7588C56.2857 38.4956 56.3067 38.386 56.3067 38.364C56.3067 38.3202 56.2857 38.2105 56.0966 37.9474L55.5714 37.2456C55.4874 37.136 55.4664 37.0921 55.4664 37.0263C55.4664 36.9386 55.5084 36.8289 55.7185 36.7632L56.5378 36.5219C56.8529 36.4781 57 36.3684 57 36.2807Z" fill="#00A88E"/>
<path d="M63 72C66.3137 72 69 69.3137 69 66C69 62.6863 66.3137 60 63 60C59.6863 60 57 62.6863 57 66C57 69.3137 59.6863 72 63 72Z" stroke="#F37043" stroke-miterlimit="10"/>
<path d="M63 62L64.2 64.2273L67 64.6515L65 66.4545L65.5 69L63 67.7273L60.5 69L61 66.4545L59 64.6515L61.8 64.2273L63 62Z" fill="#F37043"/>
</svg>
