<svg width="80" height="80" viewBox="0 0 80 80" fill="none" xmlns="http://www.w3.org/2000/svg">
<path fill-rule="evenodd" clip-rule="evenodd" d="M25.9972 17.7024C30.1244 14.9869 34.9854 13.5059 40 13.5C44.5282 13.5 48.9651 14.7056 52.8595 16.9799L53.2321 16.6189C52.1803 15.9971 51.0837 15.4488 49.9498 14.9791C46.7953 13.6725 43.4144 13 40 13C34.8577 13 29.8309 14.5249 25.5552 17.3818C25.5422 17.3905 25.5292 17.3992 25.5162 17.4079L25.9972 17.7024Z" fill="#B0CCD8"/>
<path fill-rule="evenodd" clip-rule="evenodd" d="M58.0561 11.9772C52.7115 8.40609 46.428 6.5 40.0001 6.5C31.3838 6.51059 23.1234 9.93808 17.0308 16.0307C16.7262 16.3353 16.4282 16.6454 16.137 16.9606L15.6914 16.6821C17.4625 14.753 19.466 13.0317 21.6663 11.5615C27.0931 7.93542 33.4733 6 40.0001 6C44.3337 6 48.6249 6.85357 52.6286 8.51198C56.6324 10.1704 60.2703 12.6011 63.3346 15.6655C66.3989 18.7298 68.8297 22.3677 70.4881 26.3714C71.1392 27.9435 71.6663 29.5598 72.0664 31.2056L71.5568 31.2268C71.1665 29.6423 70.6559 28.083 70.0262 26.5628C67.5663 20.6242 63.4007 15.5484 58.0561 11.9772Z" fill="#B0CCD8"/>
<path d="M80 53L40 73L0 53L40 33L80 53Z" fill="#00A88E"/>
<path fill-rule="evenodd" clip-rule="evenodd" d="M43.299 71.3505L42.1811 71.9094L22.1663 61.8971L22.6136 61.0028L43.299 71.3505ZM46.754 69.623L45.6358 70.1821L25.6165 60.1773L26.0635 59.2828L46.754 69.623ZM50.199 67.9005L49.0812 68.4594L29.0663 58.4471L29.5137 57.5528L50.199 67.9005ZM53.6541 66.173L52.5362 66.7319L32.5164 56.7172L32.9637 55.8228L53.6541 66.173ZM57.099 64.4505L55.9811 65.0094L35.9663 54.9972L36.4137 54.1028L57.099 64.4505ZM60.554 62.723L59.4363 63.2818L39.4262 53.2671L39.8737 52.3728L60.554 62.723ZM64.0141 60.993L62.8962 61.5519L42.8763 51.5372L43.3237 50.6428L64.0141 60.993ZM67.4591 59.2705L66.3412 59.8294L46.3263 49.8171L46.7737 48.9228L67.4591 59.2705ZM70.9141 57.543L69.7962 58.1019L49.7764 48.0872L50.2238 47.1928L70.9141 57.543ZM74.369 55.8155L73.2508 56.3746L53.2265 46.3673L53.6735 45.4728L74.369 55.8155ZM77.814 54.093L76.6962 54.6519L56.6763 44.6371L57.1237 43.7428L77.814 54.093Z" fill="#7CCCBF"/>
<path d="M58 58L68 63.5L58 69V58Z" fill="#F37043"/>
<path d="M6.25 43.589V15.411L33.4564 29.5L6.25 43.589Z" stroke="#B0CCD8" stroke-width="0.5"/>
<path d="M41.25 28.5955V17.4045L52.441 23L41.25 28.5955Z" stroke="#B0CCD8" stroke-width="0.5"/>
<path d="M20.38 71.13L49.5 55.5" stroke="#008E77" stroke-miterlimit="10" stroke-dasharray="15 3 3 3"/>
<path d="M10.5 53.5L51.03 33.54" stroke="#008E77" stroke-miterlimit="10" stroke-dasharray="15 3 3 3"/>
<path d="M74 46C75.1046 46 76 45.1046 76 44C76 42.8954 75.1046 42 74 42C72.8954 42 72 42.8954 72 44C72 45.1046 72.8954 46 74 46Z" fill="#008E77"/>
<path d="M58 20C59.1046 20 60 19.1046 60 18C60 16.8954 59.1046 16 58 16C56.8954 16 56 16.8954 56 18C56 19.1046 56.8954 20 58 20Z" fill="#F3B937"/>
<path d="M19.4999 59L67.4999 33" stroke="#7CCCBF" stroke-miterlimit="10" stroke-dasharray="15 3 3 3"/>
<path d="M34 22H19V53H61V27H37L34 22Z" fill="#D5E04E"/>
<path d="M33.3 38.8L38.1 44.67L47.7001 34" stroke="#A96D45" stroke-width="3" stroke-miterlimit="10"/>
</svg>
