<svg width="80" height="80" viewBox="0 0 80 80" fill="none" xmlns="http://www.w3.org/2000/svg">
<g clip-path="url(#clip0)">
<path fill-rule="evenodd" clip-rule="evenodd" d="M62.6892 27.3618L63.5331 27.946C62.7546 26.2885 61.804 24.7198 60.6983 23.2654L60.5144 23.8538C61.3308 24.9595 62.0586 26.1323 62.6892 27.3618ZM47.621 14.6654L47.5203 14.1113C46.2628 13.7314 44.9788 13.4474 43.6794 13.2617L44.1228 13.8355C45.3082 14.0297 46.4771 14.3072 47.621 14.6654Z" fill="#B0CCD8"/>
<path fill-rule="evenodd" clip-rule="evenodd" d="M28.5964 8.57862C32.2086 7.22153 36.0673 6.50483 40.0001 6.5C46.428 6.5 52.7115 8.40609 58.0561 11.9772C63.4007 15.5484 67.5663 20.6242 70.0262 26.5628C70.6559 28.083 71.1665 29.6423 71.5568 31.2268L72.0664 31.2056C71.6663 29.5598 71.1392 27.9435 70.4881 26.3714C68.8297 22.3677 66.3989 18.7298 63.3346 15.6655C60.2703 12.6011 56.6324 10.1704 52.6286 8.51198C48.6249 6.85357 44.3337 6 40.0001 6C36.0031 6 32.061 6.72585 28.3593 8.12133L28.5964 8.57862ZM19.8227 13.5426L19.6533 13.0191C17.8907 14.3994 16.2785 15.9514 14.8385 17.6483L15.1932 18.0283C15.7755 17.3398 16.3883 16.6732 17.0308 16.0307C17.9174 15.1441 18.8499 14.314 19.8227 13.5426Z" fill="#B0CCD8"/>
<path d="M80 53L40 73L0 53L40 33L80 53Z" fill="#00A88E"/>
<path fill-rule="evenodd" clip-rule="evenodd" d="M43.299 71.3505L42.1811 71.9094L22.1663 61.8971L22.6136 61.0028L43.299 71.3505ZM46.754 69.623L45.6358 70.1821L25.6165 60.1773L26.0635 59.2828L46.754 69.623ZM50.199 67.9005L49.0812 68.4594L29.0663 58.4471L29.5137 57.5528L50.199 67.9005ZM53.6541 66.173L52.5362 66.7319L32.5164 56.7172L32.9637 55.8228L53.6541 66.173ZM57.099 64.4505L55.9811 65.0094L35.9663 54.9972L36.4137 54.1028L57.099 64.4505ZM60.554 62.723L59.4363 63.2818L39.4262 53.2671L39.8737 52.3728L60.554 62.723ZM64.0141 60.993L62.8962 61.5519L42.8763 51.5372L43.3237 50.6428L64.0141 60.993ZM67.4591 59.2705L66.3412 59.8294L46.3263 49.8171L46.7737 48.9228L67.4591 59.2705ZM70.9141 57.543L69.7962 58.1019L49.7764 48.0872L50.2238 47.1928L70.9141 57.543ZM74.369 55.8155L73.2508 56.3746L53.2265 46.3673L53.6735 45.4728L74.369 55.8155ZM77.814 54.093L76.6962 54.6519L56.6763 44.6371L57.1237 43.7428L77.814 54.093Z" fill="#7CCCBF"/>
<path d="M6.25 44.582V16.418L32.4716 30.5L6.25 44.582Z" stroke="#B0CCD8" stroke-width="0.5"/>
<path d="M64.25 42.5955V30.4045L76.441 36.5L64.25 42.5955Z" stroke="#B0CCD8" stroke-width="0.5"/>
<path d="M39 64.5L76.12 44" stroke="#008E77" stroke-miterlimit="10" stroke-dasharray="15 3 3 3"/>
<path d="M0 59.96L40.53 40" stroke="#008E77" stroke-miterlimit="10" stroke-dasharray="15 3 3 3"/>
<path d="M13 29C14.1046 29 15 28.1046 15 27C15 25.8954 14.1046 25 13 25C11.8954 25 11 25.8954 11 27C11 28.1046 11.8954 29 13 29Z" fill="#F3B937"/>
<path d="M65.5 69C66.8807 69 68 67.8807 68 66.5C68 65.1193 66.8807 64 65.5 64C64.1193 64 63 65.1193 63 66.5C63 67.8807 64.1193 69 65.5 69Z" fill="#8ED8F8"/>
<path d="M14 66L62 40" stroke="#7CCCBF" stroke-miterlimit="10" stroke-dasharray="15 3 3 3"/>
<path d="M45 40H22V11H39L45 18V40Z" fill="#8ED8F8"/>
<path d="M42 35.5C42 36.9 40.9 38 39.5 38C38.1 38 37 36.9 37 35.5C37 34.1 38.1 33 39.5 33C40.9 33 42 34.1 42 35.5Z" fill="#40ABE1"/>
<path d="M42 24H25V25H42V24ZM30 14H25V15H30V14ZM30 16H25V17H30V16ZM37 20H30V22H37V20ZM42 27H25V28H42V27ZM42 30H25V31H42V30ZM29 35H25V36H29V35Z" fill="white"/>
<path opacity="0.3" d="M45 18L39 11V18H45Z" fill="white"/>
<path d="M34 27H19V58H61V32H37L34 27Z" fill="#FFDF4F"/>
<path d="M40.9714 37C43.3382 37 45 39.0832 45 41V45H36V41C36 39.0832 37.6618 37 40.0286 37H40.9714Z" stroke="#A96D45" stroke-width="2"/>
<path d="M33 44V45.4V46.3V54H48V46.3V45.4V44H33Z" fill="#A96D45"/>
<rect x="53" y="18" width="3" height="8" fill="#F37043"/>
<rect x="53" y="28" width="2" height="6" transform="rotate(-90 53 28)" fill="#F37043"/>
<rect x="53" y="25" width="2" height="5" transform="rotate(-90 53 25)" fill="#F37043"/>
<circle cx="54.5" cy="13.5" r="4" stroke="#F37043" stroke-width="3"/>
</g>
<defs>
<clipPath id="clip0">
<rect width="80" height="80" fill="white"/>
</clipPath>
</defs>
</svg>
